<mxfile host="app.diagrams.net" agent="Mozilla/5.0 (Windows NT 10.0; Win64; x64) AppleWebKit/537.36 (KHTML, like Gecko) Chrome/132.0.0.0 Safari/537.36 OPR/117.0.0.0" version="26.2.9">
  <diagram name="Página-1" id="-M7P-Nu4QFH6soFrR1JS">
    <mxGraphModel dx="1349" dy="914" grid="1" gridSize="10" guides="1" tooltips="1" connect="1" arrows="1" fold="1" page="1" pageScale="1" pageWidth="827" pageHeight="1169" math="0" shadow="0">
      <root>
        <mxCell id="0" />
        <mxCell id="1" parent="0" />
        <mxCell id="9CLSoSpFjes_b-e0Jf4f-15" style="edgeStyle=orthogonalEdgeStyle;rounded=0;orthogonalLoop=1;jettySize=auto;html=1;entryX=0.5;entryY=1;entryDx=0;entryDy=0;" edge="1" parent="1" source="9CLSoSpFjes_b-e0Jf4f-1" target="9CLSoSpFjes_b-e0Jf4f-10">
          <mxGeometry relative="1" as="geometry" />
        </mxCell>
        <mxCell id="9CLSoSpFjes_b-e0Jf4f-16" style="edgeStyle=orthogonalEdgeStyle;rounded=0;orthogonalLoop=1;jettySize=auto;html=1;entryX=0.5;entryY=1;entryDx=0;entryDy=0;" edge="1" parent="1" source="9CLSoSpFjes_b-e0Jf4f-1" target="9CLSoSpFjes_b-e0Jf4f-7">
          <mxGeometry relative="1" as="geometry" />
        </mxCell>
        <mxCell id="9CLSoSpFjes_b-e0Jf4f-17" style="edgeStyle=orthogonalEdgeStyle;rounded=0;orthogonalLoop=1;jettySize=auto;html=1;entryX=1;entryY=0.5;entryDx=0;entryDy=0;" edge="1" parent="1" source="9CLSoSpFjes_b-e0Jf4f-1" target="9CLSoSpFjes_b-e0Jf4f-9">
          <mxGeometry relative="1" as="geometry" />
        </mxCell>
        <mxCell id="9CLSoSpFjes_b-e0Jf4f-18" style="edgeStyle=orthogonalEdgeStyle;rounded=0;orthogonalLoop=1;jettySize=auto;html=1;entryX=1;entryY=0.5;entryDx=0;entryDy=0;" edge="1" parent="1" source="9CLSoSpFjes_b-e0Jf4f-1" target="9CLSoSpFjes_b-e0Jf4f-6">
          <mxGeometry relative="1" as="geometry" />
        </mxCell>
        <mxCell id="9CLSoSpFjes_b-e0Jf4f-19" style="edgeStyle=orthogonalEdgeStyle;rounded=0;orthogonalLoop=1;jettySize=auto;html=1;entryX=0.5;entryY=0;entryDx=0;entryDy=0;" edge="1" parent="1" source="9CLSoSpFjes_b-e0Jf4f-1" target="9CLSoSpFjes_b-e0Jf4f-8">
          <mxGeometry relative="1" as="geometry" />
        </mxCell>
        <mxCell id="9CLSoSpFjes_b-e0Jf4f-1" value="Alimento" style="rounded=0;whiteSpace=wrap;html=1;" vertex="1" parent="1">
          <mxGeometry x="110" y="725" width="120" height="60" as="geometry" />
        </mxCell>
        <mxCell id="9CLSoSpFjes_b-e0Jf4f-20" style="edgeStyle=orthogonalEdgeStyle;rounded=0;orthogonalLoop=1;jettySize=auto;html=1;entryX=0.5;entryY=1;entryDx=0;entryDy=0;" edge="1" parent="1" source="9CLSoSpFjes_b-e0Jf4f-2" target="9CLSoSpFjes_b-e0Jf4f-12">
          <mxGeometry relative="1" as="geometry" />
        </mxCell>
        <mxCell id="9CLSoSpFjes_b-e0Jf4f-21" style="edgeStyle=orthogonalEdgeStyle;rounded=0;orthogonalLoop=1;jettySize=auto;html=1;entryX=0.5;entryY=1;entryDx=0;entryDy=0;" edge="1" parent="1" source="9CLSoSpFjes_b-e0Jf4f-2" target="9CLSoSpFjes_b-e0Jf4f-13">
          <mxGeometry relative="1" as="geometry" />
        </mxCell>
        <mxCell id="9CLSoSpFjes_b-e0Jf4f-22" style="edgeStyle=orthogonalEdgeStyle;rounded=0;orthogonalLoop=1;jettySize=auto;html=1;entryX=0;entryY=0.5;entryDx=0;entryDy=0;" edge="1" parent="1" source="9CLSoSpFjes_b-e0Jf4f-2" target="9CLSoSpFjes_b-e0Jf4f-11">
          <mxGeometry relative="1" as="geometry" />
        </mxCell>
        <mxCell id="9CLSoSpFjes_b-e0Jf4f-23" style="edgeStyle=orthogonalEdgeStyle;rounded=0;orthogonalLoop=1;jettySize=auto;html=1;entryX=0;entryY=0.5;entryDx=0;entryDy=0;" edge="1" parent="1" source="9CLSoSpFjes_b-e0Jf4f-2" target="9CLSoSpFjes_b-e0Jf4f-14">
          <mxGeometry relative="1" as="geometry" />
        </mxCell>
        <mxCell id="9CLSoSpFjes_b-e0Jf4f-26" value="" style="edgeStyle=orthogonalEdgeStyle;rounded=0;orthogonalLoop=1;jettySize=auto;html=1;" edge="1" parent="1" source="9CLSoSpFjes_b-e0Jf4f-2" target="9CLSoSpFjes_b-e0Jf4f-24">
          <mxGeometry relative="1" as="geometry" />
        </mxCell>
        <mxCell id="9CLSoSpFjes_b-e0Jf4f-29" style="edgeStyle=orthogonalEdgeStyle;rounded=0;orthogonalLoop=1;jettySize=auto;html=1;entryX=0.5;entryY=0;entryDx=0;entryDy=0;" edge="1" parent="1" source="9CLSoSpFjes_b-e0Jf4f-2" target="9CLSoSpFjes_b-e0Jf4f-28">
          <mxGeometry relative="1" as="geometry" />
        </mxCell>
        <mxCell id="9CLSoSpFjes_b-e0Jf4f-77" value="" style="edgeStyle=orthogonalEdgeStyle;rounded=0;orthogonalLoop=1;jettySize=auto;html=1;" edge="1" parent="1" source="9CLSoSpFjes_b-e0Jf4f-2" target="9CLSoSpFjes_b-e0Jf4f-76">
          <mxGeometry relative="1" as="geometry" />
        </mxCell>
        <mxCell id="9CLSoSpFjes_b-e0Jf4f-94" style="edgeStyle=orthogonalEdgeStyle;rounded=0;orthogonalLoop=1;jettySize=auto;html=1;entryX=0.5;entryY=0;entryDx=0;entryDy=0;" edge="1" parent="1" source="9CLSoSpFjes_b-e0Jf4f-2" target="9CLSoSpFjes_b-e0Jf4f-93">
          <mxGeometry relative="1" as="geometry" />
        </mxCell>
        <mxCell id="9CLSoSpFjes_b-e0Jf4f-2" value="Usuario" style="rounded=0;whiteSpace=wrap;html=1;" vertex="1" parent="1">
          <mxGeometry x="467" y="160" width="120" height="60" as="geometry" />
        </mxCell>
        <mxCell id="9CLSoSpFjes_b-e0Jf4f-5" style="edgeStyle=orthogonalEdgeStyle;rounded=0;orthogonalLoop=1;jettySize=auto;html=1;entryX=1;entryY=0.5;entryDx=0;entryDy=0;" edge="1" parent="1" source="9CLSoSpFjes_b-e0Jf4f-3" target="9CLSoSpFjes_b-e0Jf4f-1">
          <mxGeometry relative="1" as="geometry" />
        </mxCell>
        <mxCell id="9CLSoSpFjes_b-e0Jf4f-3" value="Tiene" style="rhombus;whiteSpace=wrap;html=1;" vertex="1" parent="1">
          <mxGeometry x="273" y="715" width="80" height="80" as="geometry" />
        </mxCell>
        <mxCell id="9CLSoSpFjes_b-e0Jf4f-6" value="&lt;u&gt;id&lt;/u&gt;" style="ellipse;whiteSpace=wrap;html=1;" vertex="1" parent="1">
          <mxGeometry x="10" y="765" width="60" height="50" as="geometry" />
        </mxCell>
        <mxCell id="9CLSoSpFjes_b-e0Jf4f-7" value="Proteina" style="ellipse;whiteSpace=wrap;html=1;" vertex="1" parent="1">
          <mxGeometry x="90" y="635" width="60" height="40" as="geometry" />
        </mxCell>
        <mxCell id="9CLSoSpFjes_b-e0Jf4f-8" value="Carbohidratos" style="ellipse;whiteSpace=wrap;html=1;" vertex="1" parent="1">
          <mxGeometry x="130" y="825" width="80" height="50" as="geometry" />
        </mxCell>
        <mxCell id="9CLSoSpFjes_b-e0Jf4f-9" value="Azucares" style="ellipse;whiteSpace=wrap;html=1;" vertex="1" parent="1">
          <mxGeometry x="10" y="705" width="60" height="50" as="geometry" />
        </mxCell>
        <mxCell id="9CLSoSpFjes_b-e0Jf4f-10" value="Fibra" style="ellipse;whiteSpace=wrap;html=1;rotation=0;" vertex="1" parent="1">
          <mxGeometry x="190" y="635" width="50" height="40" as="geometry" />
        </mxCell>
        <mxCell id="9CLSoSpFjes_b-e0Jf4f-11" value="Correo Electronico" style="ellipse;whiteSpace=wrap;html=1;" vertex="1" parent="1">
          <mxGeometry x="625" y="120" width="80" height="60" as="geometry" />
        </mxCell>
        <mxCell id="9CLSoSpFjes_b-e0Jf4f-12" value="&lt;u&gt;id&lt;/u&gt;" style="ellipse;whiteSpace=wrap;html=1;" vertex="1" parent="1">
          <mxGeometry x="447" y="70" width="60" height="50" as="geometry" />
        </mxCell>
        <mxCell id="9CLSoSpFjes_b-e0Jf4f-13" value="Nombre" style="ellipse;whiteSpace=wrap;html=1;" vertex="1" parent="1">
          <mxGeometry x="547" y="80" width="60" height="40" as="geometry" />
        </mxCell>
        <mxCell id="9CLSoSpFjes_b-e0Jf4f-14" value="Contraseña" style="ellipse;whiteSpace=wrap;html=1;" vertex="1" parent="1">
          <mxGeometry x="627" y="210" width="76" height="40" as="geometry" />
        </mxCell>
        <mxCell id="9CLSoSpFjes_b-e0Jf4f-27" value="" style="edgeStyle=orthogonalEdgeStyle;rounded=0;orthogonalLoop=1;jettySize=auto;html=1;entryX=0.5;entryY=0;entryDx=0;entryDy=0;" edge="1" parent="1" source="9CLSoSpFjes_b-e0Jf4f-24" target="9CLSoSpFjes_b-e0Jf4f-32">
          <mxGeometry relative="1" as="geometry">
            <mxPoint x="457" y="435" as="targetPoint" />
          </mxGeometry>
        </mxCell>
        <mxCell id="9CLSoSpFjes_b-e0Jf4f-24" value="Tiene" style="rhombus;whiteSpace=wrap;html=1;" vertex="1" parent="1">
          <mxGeometry x="417" y="305" width="80" height="80" as="geometry" />
        </mxCell>
        <mxCell id="9CLSoSpFjes_b-e0Jf4f-31" value="" style="edgeStyle=orthogonalEdgeStyle;rounded=0;orthogonalLoop=1;jettySize=auto;html=1;entryX=0.5;entryY=0;entryDx=0;entryDy=0;" edge="1" parent="1" source="9CLSoSpFjes_b-e0Jf4f-28" target="9CLSoSpFjes_b-e0Jf4f-33">
          <mxGeometry relative="1" as="geometry">
            <mxPoint x="587" y="435" as="targetPoint" />
          </mxGeometry>
        </mxCell>
        <mxCell id="9CLSoSpFjes_b-e0Jf4f-28" value="Crean" style="rhombus;whiteSpace=wrap;html=1;" vertex="1" parent="1">
          <mxGeometry x="547" y="305" width="80" height="80" as="geometry" />
        </mxCell>
        <mxCell id="9CLSoSpFjes_b-e0Jf4f-43" value="" style="edgeStyle=orthogonalEdgeStyle;rounded=0;orthogonalLoop=1;jettySize=auto;html=1;" edge="1" parent="1" source="9CLSoSpFjes_b-e0Jf4f-32" target="9CLSoSpFjes_b-e0Jf4f-42">
          <mxGeometry relative="1" as="geometry" />
        </mxCell>
        <mxCell id="9CLSoSpFjes_b-e0Jf4f-66" style="edgeStyle=orthogonalEdgeStyle;rounded=0;orthogonalLoop=1;jettySize=auto;html=1;entryX=1;entryY=0.5;entryDx=0;entryDy=0;" edge="1" parent="1" source="9CLSoSpFjes_b-e0Jf4f-32" target="9CLSoSpFjes_b-e0Jf4f-65">
          <mxGeometry relative="1" as="geometry" />
        </mxCell>
        <mxCell id="9CLSoSpFjes_b-e0Jf4f-68" value="" style="edgeStyle=orthogonalEdgeStyle;rounded=0;orthogonalLoop=1;jettySize=auto;html=1;" edge="1" parent="1" source="9CLSoSpFjes_b-e0Jf4f-32" target="9CLSoSpFjes_b-e0Jf4f-67">
          <mxGeometry relative="1" as="geometry" />
        </mxCell>
        <mxCell id="9CLSoSpFjes_b-e0Jf4f-32" value="Dietas" style="rounded=0;whiteSpace=wrap;html=1;" vertex="1" parent="1">
          <mxGeometry x="397" y="455" width="120" height="60" as="geometry" />
        </mxCell>
        <mxCell id="9CLSoSpFjes_b-e0Jf4f-38" style="edgeStyle=orthogonalEdgeStyle;rounded=0;orthogonalLoop=1;jettySize=auto;html=1;entryX=0.5;entryY=0;entryDx=0;entryDy=0;" edge="1" parent="1" source="9CLSoSpFjes_b-e0Jf4f-33" target="9CLSoSpFjes_b-e0Jf4f-37">
          <mxGeometry relative="1" as="geometry" />
        </mxCell>
        <mxCell id="9CLSoSpFjes_b-e0Jf4f-39" style="edgeStyle=orthogonalEdgeStyle;rounded=0;orthogonalLoop=1;jettySize=auto;html=1;entryX=0;entryY=0.5;entryDx=0;entryDy=0;" edge="1" parent="1" source="9CLSoSpFjes_b-e0Jf4f-33" target="9CLSoSpFjes_b-e0Jf4f-34">
          <mxGeometry relative="1" as="geometry" />
        </mxCell>
        <mxCell id="9CLSoSpFjes_b-e0Jf4f-40" style="edgeStyle=orthogonalEdgeStyle;rounded=0;orthogonalLoop=1;jettySize=auto;html=1;entryX=0;entryY=0.5;entryDx=0;entryDy=0;" edge="1" parent="1" source="9CLSoSpFjes_b-e0Jf4f-33" target="9CLSoSpFjes_b-e0Jf4f-35">
          <mxGeometry relative="1" as="geometry" />
        </mxCell>
        <mxCell id="9CLSoSpFjes_b-e0Jf4f-56" style="edgeStyle=orthogonalEdgeStyle;rounded=0;orthogonalLoop=1;jettySize=auto;html=1;entryX=0.5;entryY=0;entryDx=0;entryDy=0;" edge="1" parent="1" source="9CLSoSpFjes_b-e0Jf4f-33" target="9CLSoSpFjes_b-e0Jf4f-55">
          <mxGeometry relative="1" as="geometry" />
        </mxCell>
        <mxCell id="9CLSoSpFjes_b-e0Jf4f-33" value="Publicaciones" style="rounded=0;whiteSpace=wrap;html=1;" vertex="1" parent="1">
          <mxGeometry x="527" y="455" width="120" height="60" as="geometry" />
        </mxCell>
        <mxCell id="9CLSoSpFjes_b-e0Jf4f-34" value="Texto" style="ellipse;whiteSpace=wrap;html=1;" vertex="1" parent="1">
          <mxGeometry x="707" y="435" width="60" height="40" as="geometry" />
        </mxCell>
        <mxCell id="9CLSoSpFjes_b-e0Jf4f-35" value="Imagenes" style="ellipse;whiteSpace=wrap;html=1;" vertex="1" parent="1">
          <mxGeometry x="707" y="505" width="70" height="50" as="geometry" />
        </mxCell>
        <mxCell id="9CLSoSpFjes_b-e0Jf4f-37" value="&lt;u&gt;id&lt;/u&gt;" style="ellipse;whiteSpace=wrap;html=1;" vertex="1" parent="1">
          <mxGeometry x="527" y="575" width="60" height="50" as="geometry" />
        </mxCell>
        <mxCell id="9CLSoSpFjes_b-e0Jf4f-46" value="" style="edgeStyle=orthogonalEdgeStyle;rounded=0;orthogonalLoop=1;jettySize=auto;html=1;" edge="1" parent="1" source="9CLSoSpFjes_b-e0Jf4f-41" target="9CLSoSpFjes_b-e0Jf4f-45">
          <mxGeometry relative="1" as="geometry" />
        </mxCell>
        <mxCell id="9CLSoSpFjes_b-e0Jf4f-48" style="edgeStyle=orthogonalEdgeStyle;rounded=0;orthogonalLoop=1;jettySize=auto;html=1;entryX=0.5;entryY=0;entryDx=0;entryDy=0;" edge="1" parent="1" source="9CLSoSpFjes_b-e0Jf4f-41" target="9CLSoSpFjes_b-e0Jf4f-47">
          <mxGeometry relative="1" as="geometry" />
        </mxCell>
        <mxCell id="9CLSoSpFjes_b-e0Jf4f-75" style="edgeStyle=orthogonalEdgeStyle;rounded=0;orthogonalLoop=1;jettySize=auto;html=1;exitX=0;exitY=0.5;exitDx=0;exitDy=0;entryX=1;entryY=0.5;entryDx=0;entryDy=0;" edge="1" parent="1" source="9CLSoSpFjes_b-e0Jf4f-41" target="9CLSoSpFjes_b-e0Jf4f-3">
          <mxGeometry relative="1" as="geometry" />
        </mxCell>
        <mxCell id="9CLSoSpFjes_b-e0Jf4f-41" value="Recetas" style="rounded=0;whiteSpace=wrap;html=1;" vertex="1" parent="1">
          <mxGeometry x="397" y="725" width="120" height="60" as="geometry" />
        </mxCell>
        <mxCell id="9CLSoSpFjes_b-e0Jf4f-44" value="" style="edgeStyle=orthogonalEdgeStyle;rounded=0;orthogonalLoop=1;jettySize=auto;html=1;" edge="1" parent="1" source="9CLSoSpFjes_b-e0Jf4f-42" target="9CLSoSpFjes_b-e0Jf4f-41">
          <mxGeometry relative="1" as="geometry" />
        </mxCell>
        <mxCell id="9CLSoSpFjes_b-e0Jf4f-42" value="Contiene" style="rhombus;whiteSpace=wrap;html=1;" vertex="1" parent="1">
          <mxGeometry x="417" y="605" width="80" height="80" as="geometry" />
        </mxCell>
        <mxCell id="9CLSoSpFjes_b-e0Jf4f-45" value="Valoracion" style="ellipse;whiteSpace=wrap;html=1;" vertex="1" parent="1">
          <mxGeometry x="368" y="835" width="79" height="50" as="geometry" />
        </mxCell>
        <mxCell id="9CLSoSpFjes_b-e0Jf4f-47" value="&lt;u&gt;id&lt;/u&gt;" style="ellipse;whiteSpace=wrap;html=1;" vertex="1" parent="1">
          <mxGeometry x="470" y="835" width="60" height="50" as="geometry" />
        </mxCell>
        <mxCell id="9CLSoSpFjes_b-e0Jf4f-58" value="" style="edgeStyle=orthogonalEdgeStyle;rounded=0;orthogonalLoop=1;jettySize=auto;html=1;" edge="1" parent="1" source="9CLSoSpFjes_b-e0Jf4f-55" target="9CLSoSpFjes_b-e0Jf4f-57">
          <mxGeometry relative="1" as="geometry" />
        </mxCell>
        <mxCell id="9CLSoSpFjes_b-e0Jf4f-55" value="Tienen" style="rhombus;whiteSpace=wrap;html=1;" vertex="1" parent="1">
          <mxGeometry x="607" y="575" width="80" height="80" as="geometry" />
        </mxCell>
        <mxCell id="9CLSoSpFjes_b-e0Jf4f-61" style="edgeStyle=orthogonalEdgeStyle;rounded=0;orthogonalLoop=1;jettySize=auto;html=1;entryX=0.5;entryY=0;entryDx=0;entryDy=0;" edge="1" parent="1" source="9CLSoSpFjes_b-e0Jf4f-57" target="9CLSoSpFjes_b-e0Jf4f-60">
          <mxGeometry relative="1" as="geometry" />
        </mxCell>
        <mxCell id="9CLSoSpFjes_b-e0Jf4f-62" style="edgeStyle=orthogonalEdgeStyle;rounded=0;orthogonalLoop=1;jettySize=auto;html=1;entryX=0.5;entryY=0;entryDx=0;entryDy=0;" edge="1" parent="1" source="9CLSoSpFjes_b-e0Jf4f-57" target="9CLSoSpFjes_b-e0Jf4f-59">
          <mxGeometry relative="1" as="geometry" />
        </mxCell>
        <mxCell id="9CLSoSpFjes_b-e0Jf4f-64" value="" style="edgeStyle=orthogonalEdgeStyle;rounded=0;orthogonalLoop=1;jettySize=auto;html=1;" edge="1" parent="1" source="9CLSoSpFjes_b-e0Jf4f-57" target="9CLSoSpFjes_b-e0Jf4f-63">
          <mxGeometry relative="1" as="geometry" />
        </mxCell>
        <mxCell id="9CLSoSpFjes_b-e0Jf4f-57" value="Likes" style="rounded=0;whiteSpace=wrap;html=1;" vertex="1" parent="1">
          <mxGeometry x="587" y="705" width="120" height="60" as="geometry" />
        </mxCell>
        <mxCell id="9CLSoSpFjes_b-e0Jf4f-59" value="id publicacion" style="ellipse;whiteSpace=wrap;html=1;" vertex="1" parent="1">
          <mxGeometry x="660" y="845" width="63" height="60" as="geometry" />
        </mxCell>
        <mxCell id="9CLSoSpFjes_b-e0Jf4f-60" value="id usuario" style="ellipse;whiteSpace=wrap;html=1;" vertex="1" parent="1">
          <mxGeometry x="564" y="845" width="63" height="50" as="geometry" />
        </mxCell>
        <mxCell id="9CLSoSpFjes_b-e0Jf4f-63" value="&lt;u&gt;id&lt;/u&gt;" style="ellipse;whiteSpace=wrap;html=1;" vertex="1" parent="1">
          <mxGeometry x="767" y="755" width="60" height="50" as="geometry" />
        </mxCell>
        <mxCell id="9CLSoSpFjes_b-e0Jf4f-65" value="&lt;span&gt;id&lt;/span&gt;" style="ellipse;whiteSpace=wrap;html=1;fontStyle=4" vertex="1" parent="1">
          <mxGeometry x="293" y="540" width="60" height="50" as="geometry" />
        </mxCell>
        <mxCell id="9CLSoSpFjes_b-e0Jf4f-70" value="" style="edgeStyle=orthogonalEdgeStyle;rounded=0;orthogonalLoop=1;jettySize=auto;html=1;" edge="1" parent="1" source="9CLSoSpFjes_b-e0Jf4f-67" target="9CLSoSpFjes_b-e0Jf4f-69">
          <mxGeometry relative="1" as="geometry" />
        </mxCell>
        <mxCell id="9CLSoSpFjes_b-e0Jf4f-67" value="Tiene" style="rhombus;whiteSpace=wrap;html=1;" vertex="1" parent="1">
          <mxGeometry x="260" y="445" width="80" height="80" as="geometry" />
        </mxCell>
        <mxCell id="9CLSoSpFjes_b-e0Jf4f-72" value="" style="edgeStyle=orthogonalEdgeStyle;rounded=0;orthogonalLoop=1;jettySize=auto;html=1;" edge="1" parent="1" source="9CLSoSpFjes_b-e0Jf4f-69" target="9CLSoSpFjes_b-e0Jf4f-71">
          <mxGeometry relative="1" as="geometry" />
        </mxCell>
        <mxCell id="9CLSoSpFjes_b-e0Jf4f-74" value="" style="edgeStyle=orthogonalEdgeStyle;rounded=0;orthogonalLoop=1;jettySize=auto;html=1;" edge="1" parent="1" source="9CLSoSpFjes_b-e0Jf4f-69" target="9CLSoSpFjes_b-e0Jf4f-73">
          <mxGeometry relative="1" as="geometry" />
        </mxCell>
        <mxCell id="9CLSoSpFjes_b-e0Jf4f-69" value="Tipo" style="rounded=0;whiteSpace=wrap;html=1;" vertex="1" parent="1">
          <mxGeometry x="60" y="455" width="120" height="60" as="geometry" />
        </mxCell>
        <mxCell id="9CLSoSpFjes_b-e0Jf4f-71" value="&lt;u&gt;id&lt;/u&gt;" style="ellipse;whiteSpace=wrap;html=1;" vertex="1" parent="1">
          <mxGeometry x="90" y="555" width="60" height="50" as="geometry" />
        </mxCell>
        <mxCell id="9CLSoSpFjes_b-e0Jf4f-73" value="Nombre" style="ellipse;whiteSpace=wrap;html=1;" vertex="1" parent="1">
          <mxGeometry x="90" y="360" width="60" height="40" as="geometry" />
        </mxCell>
        <mxCell id="9CLSoSpFjes_b-e0Jf4f-79" value="" style="edgeStyle=orthogonalEdgeStyle;rounded=0;orthogonalLoop=1;jettySize=auto;html=1;" edge="1" parent="1" source="9CLSoSpFjes_b-e0Jf4f-76" target="9CLSoSpFjes_b-e0Jf4f-78">
          <mxGeometry relative="1" as="geometry" />
        </mxCell>
        <mxCell id="9CLSoSpFjes_b-e0Jf4f-76" value="Registra" style="rhombus;whiteSpace=wrap;html=1;" vertex="1" parent="1">
          <mxGeometry x="310" y="150" width="80" height="80" as="geometry" />
        </mxCell>
        <mxCell id="9CLSoSpFjes_b-e0Jf4f-102" style="edgeStyle=orthogonalEdgeStyle;rounded=0;orthogonalLoop=1;jettySize=auto;html=1;entryX=0.5;entryY=0;entryDx=0;entryDy=0;" edge="1" parent="1" source="9CLSoSpFjes_b-e0Jf4f-78" target="9CLSoSpFjes_b-e0Jf4f-101">
          <mxGeometry relative="1" as="geometry" />
        </mxCell>
        <mxCell id="9CLSoSpFjes_b-e0Jf4f-103" style="edgeStyle=orthogonalEdgeStyle;rounded=0;orthogonalLoop=1;jettySize=auto;html=1;" edge="1" parent="1" source="9CLSoSpFjes_b-e0Jf4f-78" target="9CLSoSpFjes_b-e0Jf4f-100">
          <mxGeometry relative="1" as="geometry" />
        </mxCell>
        <mxCell id="9CLSoSpFjes_b-e0Jf4f-104" style="edgeStyle=orthogonalEdgeStyle;rounded=0;orthogonalLoop=1;jettySize=auto;html=1;entryX=1;entryY=0.5;entryDx=0;entryDy=0;" edge="1" parent="1" source="9CLSoSpFjes_b-e0Jf4f-78" target="9CLSoSpFjes_b-e0Jf4f-99">
          <mxGeometry relative="1" as="geometry" />
        </mxCell>
        <mxCell id="9CLSoSpFjes_b-e0Jf4f-105" style="edgeStyle=orthogonalEdgeStyle;rounded=0;orthogonalLoop=1;jettySize=auto;html=1;entryX=1;entryY=0.5;entryDx=0;entryDy=0;" edge="1" parent="1" source="9CLSoSpFjes_b-e0Jf4f-78" target="9CLSoSpFjes_b-e0Jf4f-98">
          <mxGeometry relative="1" as="geometry" />
        </mxCell>
        <mxCell id="9CLSoSpFjes_b-e0Jf4f-106" style="edgeStyle=orthogonalEdgeStyle;rounded=0;orthogonalLoop=1;jettySize=auto;html=1;entryX=0.5;entryY=1;entryDx=0;entryDy=0;" edge="1" parent="1" source="9CLSoSpFjes_b-e0Jf4f-78" target="9CLSoSpFjes_b-e0Jf4f-97">
          <mxGeometry relative="1" as="geometry" />
        </mxCell>
        <mxCell id="9CLSoSpFjes_b-e0Jf4f-107" style="edgeStyle=orthogonalEdgeStyle;rounded=0;orthogonalLoop=1;jettySize=auto;html=1;entryX=0.5;entryY=1;entryDx=0;entryDy=0;" edge="1" parent="1" source="9CLSoSpFjes_b-e0Jf4f-78" target="9CLSoSpFjes_b-e0Jf4f-96">
          <mxGeometry relative="1" as="geometry" />
        </mxCell>
        <mxCell id="9CLSoSpFjes_b-e0Jf4f-78" value="Nutrientes" style="rounded=0;whiteSpace=wrap;html=1;" vertex="1" parent="1">
          <mxGeometry x="110" y="160" width="120" height="60" as="geometry" />
        </mxCell>
        <mxCell id="9CLSoSpFjes_b-e0Jf4f-95" style="edgeStyle=orthogonalEdgeStyle;rounded=0;orthogonalLoop=1;jettySize=auto;html=1;entryX=1;entryY=0.5;entryDx=0;entryDy=0;" edge="1" parent="1" source="9CLSoSpFjes_b-e0Jf4f-93" target="9CLSoSpFjes_b-e0Jf4f-57">
          <mxGeometry relative="1" as="geometry">
            <Array as="points">
              <mxPoint x="787" y="735" />
            </Array>
          </mxGeometry>
        </mxCell>
        <mxCell id="9CLSoSpFjes_b-e0Jf4f-93" value="Dan" style="rhombus;whiteSpace=wrap;html=1;" vertex="1" parent="1">
          <mxGeometry x="747" y="305" width="80" height="80" as="geometry" />
        </mxCell>
        <mxCell id="9CLSoSpFjes_b-e0Jf4f-96" value="Fibra" style="ellipse;whiteSpace=wrap;html=1;rotation=0;" vertex="1" parent="1">
          <mxGeometry x="190" y="80" width="50" height="40" as="geometry" />
        </mxCell>
        <mxCell id="9CLSoSpFjes_b-e0Jf4f-97" value="Proteina" style="ellipse;whiteSpace=wrap;html=1;" vertex="1" parent="1">
          <mxGeometry x="100" y="80" width="60" height="40" as="geometry" />
        </mxCell>
        <mxCell id="9CLSoSpFjes_b-e0Jf4f-98" value="Azucares" style="ellipse;whiteSpace=wrap;html=1;" vertex="1" parent="1">
          <mxGeometry x="10" y="130" width="60" height="50" as="geometry" />
        </mxCell>
        <mxCell id="9CLSoSpFjes_b-e0Jf4f-99" value="&lt;u&gt;id&lt;/u&gt;" style="ellipse;whiteSpace=wrap;html=1;" vertex="1" parent="1">
          <mxGeometry x="10" y="205" width="60" height="50" as="geometry" />
        </mxCell>
        <mxCell id="9CLSoSpFjes_b-e0Jf4f-100" value="Carbohidratos" style="ellipse;whiteSpace=wrap;html=1;" vertex="1" parent="1">
          <mxGeometry x="80" y="270" width="80" height="50" as="geometry" />
        </mxCell>
        <mxCell id="9CLSoSpFjes_b-e0Jf4f-101" value="id usuario" style="ellipse;whiteSpace=wrap;html=1;" vertex="1" parent="1">
          <mxGeometry x="200" y="270" width="63" height="50" as="geometry" />
        </mxCell>
      </root>
    </mxGraphModel>
  </diagram>
</mxfile>
